<?xml version="1.0" encoding="UTF-8" standalone="no"?>
<svg xmlns="http://www.w3.org/2000/svg" width="64" height="64" viewBox="0 0 64 64">
  <rect width="48" height="48" x="8" y="8" rx="4" fill="#f3f2f1" stroke="#c8c6c4" stroke-width="2" />
  <path d="M16,42 L48,42 L48,22 L40,22 L36,18 L28,18 L28,22 L16,22 Z" fill="#e1e1e1" stroke="#8a8886" stroke-width="1.5" />
  <path d="M32,16 L32,8 M28,12 L36,12" stroke="#8a8886" stroke-width="2" stroke-linecap="round" />
  <path d="M32,48 L32,56 M28,52 L36,52" stroke="#0078d4" stroke-width="2" stroke-linecap="round" />
  <path d="M8,32 L16,32 M12,28 L12,36" stroke="#8a8886" stroke-width="2" stroke-linecap="round" />
  <path d="M48,32 L56,32 M52,28 L52,36" stroke="#8a8886" stroke-width="2" stroke-linecap="round" />
  <circle cx="32" cy="32" r="4" fill="#0078d4" />
  <path d="M32,28 L32,18" stroke="#0078d4" stroke-width="2" stroke-linecap="round" stroke-dasharray="2,2" />
</svg>
